<svg width="26" height="24" viewBox="0 0 26 24" fill="none" xmlns="http://www.w3.org/2000/svg">
<path fill-rule="evenodd" clip-rule="evenodd" d="M8.42308 19.8203C8.85025 19.8203 9.19745 20.1633 9.19745 20.5853C9.19745 21.0073 8.85025 21.3493 8.42308 21.3493C7.99591 21.3493 7.64972 21.0073 7.64972 20.5853C7.64972 20.1633 7.99591 19.8203 8.42308 19.8203Z" stroke="#222222" stroke-width="1.5" stroke-linecap="round" stroke-linejoin="round"/>
<path fill-rule="evenodd" clip-rule="evenodd" d="M19.8133 19.8203C20.2405 19.8203 20.5877 20.1633 20.5877 20.5853C20.5877 21.0073 20.2405 21.3493 19.8133 21.3493C19.3862 21.3493 19.039 21.0073 19.039 20.5853C19.039 20.1633 19.3862 19.8203 19.8133 19.8203Z" stroke="#222222" stroke-width="1.5" stroke-linecap="round" stroke-linejoin="round"/>
<path d="M3.69342 3.25L5.79891 3.61L6.77371 15.083C6.85266 16.018 7.64323 16.736 8.59273 16.736H19.6384C20.5454 16.736 21.3147 16.078 21.4453 15.19L22.4059 8.632C22.5244 7.823 21.8897 7.099 21.0627 7.099H6.137" stroke="#222222" stroke-width="1.5" stroke-linecap="round" stroke-linejoin="round"/>
<path d="M15.2083 10.7969H18.0153" stroke="#222222" stroke-width="1.5" stroke-linecap="round" stroke-linejoin="round"/>
</svg>
