<svg width="58" height="56" viewBox="0 0 58 56" fill="none" xmlns="http://www.w3.org/2000/svg">
<g clip-path="url(#clip0_26694_55)">
<path d="M43.4618 32.2169C43.4618 22.0386 35.1318 13.7876 24.856 13.7876C14.5803 13.7876 6.25024 22.0386 6.25024 32.2169C6.25024 42.3951 14.5803 50.6461 24.856 50.6461C35.1318 50.6461 43.4618 42.3951 43.4618 32.2169Z" fill="#89C8FD"/>
<path d="M24.856 13.7876C23.9011 13.7876 22.9626 13.8589 22.0466 13.9965C30.989 15.3381 37.8426 22.9845 37.8426 32.2169C37.8426 41.4492 30.989 49.0956 22.0466 50.4372C22.9626 50.5748 23.9011 50.6461 24.856 50.6461C35.1318 50.6461 43.4618 42.3951 43.4618 32.2169C43.4618 22.0386 35.1318 13.7876 24.856 13.7876Z" fill="#60B6FF"/>
<path d="M22.4375 20.9499C19.5715 22.7242 17.4216 25.5629 19.0339 28.757C20.6462 31.9506 24.2289 30.7086 27.543 30.2651C30.8571 29.8217 28.3491 39.9354 30.3195 42.4194C32.2899 44.9034 37.8429 39.9354 37.3058 36.7413C36.51 32.0126 36.2311 30.3536 42.6798 26.9826L42.6971 26.9762C40.5235 19.7049 33.9437 14.3096 26.0211 13.8247L26.0202 13.8525C26.0202 13.8525 25.3036 19.1755 22.4375 20.9499Z" fill="#BAEB6C"/>
<path d="M36.5131 17.854C36.5144 17.8549 36.5157 17.8561 36.517 17.857C36.5157 17.8561 36.5144 17.8553 36.5131 17.854Z" fill="#BAEB6C"/>
<path d="M38.7884 20.0039C38.7884 20.0043 38.7888 20.0048 38.7892 20.0048C38.7888 20.0043 38.7888 20.0043 38.7884 20.0039Z" fill="#BAEB6C"/>
<path d="M12.4957 40.5563C11.6351 39.2596 14.0185 36.2095 14.5556 33.9028C15.0932 31.5961 11.8686 31.7734 10.8834 30.9749C9.89822 30.1764 8.5545 26.7166 7.56931 25.918L7.41189 25.7954C6.6611 27.7949 6.25024 29.9585 6.25024 32.2169C6.25024 38.3086 9.23437 43.709 13.8334 47.0641L13.839 46.6779C13.839 46.6779 14.5556 43.6616 12.4957 40.5563Z" fill="#BAEB6C"/>
<path d="M37.3059 36.7414C37.302 36.7183 37.2981 36.6957 37.2942 36.6726C36.9382 38.0932 36.4158 39.4489 35.7485 40.7178C36.8068 39.4839 37.5139 37.9796 37.3059 36.7414Z" fill="#BAEB6C"/>
<path d="M26.0212 13.8247L26.0203 13.8525C26.0203 13.8525 25.9606 14.2968 25.8066 14.9706C32.3311 17.4102 37.1078 23.3771 37.7652 30.524C38.5873 29.4132 40.0911 28.3357 42.6799 26.9826L42.6972 26.9762C40.5235 19.7049 33.9438 14.3096 26.0212 13.8247Z" fill="#96D629"/>
<path d="M24.8306 55.9999C23.5128 55.9999 22.1855 55.8931 20.8591 55.6765C14.5185 54.6421 8.96498 51.2306 5.22185 46.0703C1.47873 40.91 -0.00598061 34.6184 1.04149 28.355C1.11717 27.9012 1.55225 27.5945 2.01025 27.6692C2.46954 27.744 2.7805 28.1725 2.70438 28.6263C1.73086 34.4509 3.11135 40.3016 6.59239 45.1005C10.0734 49.8993 15.2373 53.0716 21.1341 54.0337C33.3072 56.0204 44.8441 47.8528 46.8547 35.8288C47.8282 30.0041 46.4477 24.1534 42.9667 19.3546C39.4861 14.5558 34.3218 11.3835 28.4253 10.4213C27.966 10.3465 27.6551 9.91802 27.7308 9.46428C27.8069 9.01055 28.2415 8.70379 28.6995 8.77855C35.0406 9.81292 40.5941 13.2245 44.3368 18.3848C48.0799 23.545 49.5646 29.8367 48.5176 36.1001C47.4705 42.3635 44.0167 47.8494 38.7928 51.5467C34.6613 54.4708 29.814 55.9999 24.8306 55.9999Z" fill="#09A66D"/>
<path d="M19.7138 20.1126C10.7165 18.6044 5.13489 7.41313 5.13489 7.41313C5.13489 7.41313 14.1413 -1.33303 23.1387 0.174724C32.136 1.68248 37.7176 12.8738 37.7176 12.8738C37.7176 12.8738 28.7112 21.6203 19.7138 20.1126Z" fill="#49CB5C"/>
<path d="M23.1387 0.174722C21.4204 -0.113242 19.7026 -0.0265113 18.0466 0.301187C26.6681 2.21354 31.9864 12.8738 31.9864 12.8738C31.9864 12.8738 26.0908 18.5984 19.0742 19.9861C19.2857 20.0331 19.4985 20.0763 19.7138 20.1126C28.7112 21.6203 37.7176 12.8738 37.7176 12.8738C37.7176 12.8738 32.136 1.68247 23.1387 0.174722Z" fill="#07B128"/>
<path d="M37.209 11.9445L28.4102 10.4781L20.1913 0.0234375C19.5357 0.0614624 18.8861 0.144348 18.2451 0.263123L25.9537 10.0684L19.319 8.96271L13.6578 1.72687C13.1267 1.96356 12.6103 2.21478 12.1125 2.4754L16.8685 8.55426L5.89778 6.72565C5.40519 7.15076 5.13489 7.41309 5.13489 7.41309C5.13489 7.41309 5.31566 7.77496 5.66251 8.37524L16.5736 10.1936L10.5223 14.816C10.912 15.2125 11.3207 15.6042 11.748 15.9845L18.8355 10.5709L25.8594 11.7415L16.3067 19.0427C16.8997 19.3162 17.5125 19.5529 18.1444 19.7434L28.1213 12.1188L36.9257 13.5859C37.4361 13.1463 37.7176 12.8737 37.7176 12.8737C37.7176 12.8737 37.5433 12.5251 37.209 11.9445Z" fill="#09A66D"/>
<path d="M43.8371 9.24951C46.2507 3.6073 54.6136 1.70776 54.6136 1.70776C54.6136 1.70776 59.0634 8.95599 56.6498 14.5982C54.2365 20.2404 45.8732 22.14 45.8732 22.14C45.8732 22.14 41.4234 14.8917 43.8371 9.24951Z" fill="#49CB5C"/>
<path d="M54.6137 1.70776C54.6137 1.70776 52.7121 2.14014 50.4606 3.20398C51.6158 5.62134 53.4469 10.5274 51.7053 14.5982C50.4429 17.5496 47.5522 19.4769 45.0823 20.6437C45.5282 21.5768 45.8737 22.14 45.8737 22.14C45.8737 22.14 54.2366 20.2404 56.6503 14.5982C59.0635 8.95599 54.6137 1.70776 54.6137 1.70776Z" fill="#07B128"/>
<path d="M57.3336 9.94464L50.9026 12.6098L55.125 2.63745C54.8227 2.04785 54.6138 1.70776 54.6138 1.70776C54.6138 1.70776 54.2159 1.79834 53.5685 1.99829L49.2047 12.3043L46.4987 5.72687C46.0403 6.12634 45.6078 6.56042 45.2155 7.03082L48.2818 14.4841L45.4015 21.2867C45.6826 21.8289 45.8733 22.14 45.8733 22.14C45.8733 22.14 46.3058 22.0417 47.0012 21.8238L49.9754 14.7999L57.331 11.7519C57.3799 11.1482 57.3773 10.5428 57.3336 9.94464Z" fill="#09A66D"/>
</g>
<defs>
<clipPath id="clip0_26694_55">
<rect width="56.6862" height="56" fill="white" transform="translate(0.714478)"/>
</clipPath>
</defs>
</svg>
